<svg xmlns="http://www.w3.org/2000/svg" viewBox="-35 -25 200 200" class="mozwebext"><g fill="#88C648"><path d="M44.3 69c-.7-.7-1.6-.4-2 .3L29.1 140c-.3 1.1 1.3 1.6 2 .7l31.2-44.1c.7-.7.7-1.6 0-2.6l-18-25zM130.3 39.4H91.1c-.7 0-1.1.7-1.1 1.3l3 15.8c0 .7.7 1.1 1.3.7l36.2-15.8c1.1-.7.7-2-.2-2z"/><path d="M84.9 40c0-.4-.7-.7-1.1-.7H2.2c-.9 0-1.3 1.7-.4 2L43 59.1c.9.3 2 1.3 2.6 2l56.3 79.2c.7 1.1 2 .3 2-.7L84.9 40zM48.3 27.9l36.6-11.6c2.6-.7 2.4-1.6-.3-2l-7.5-.7-8.7-13c-.4-.7-1.1-.7-1.7-.4L51.3 10.4c-.3.3-.7.7-.7 1.3l2 10.5-5.3 3.9c-1.9 1.8-1.6 2.5 1 1.8z"/></g></svg>