<?xml version="1.0" encoding="UTF-8"?>
<!-- Generator: Adobe Illustrator 18.1.1, SVG Export Plug-In . SVG Version: 6.00 Build 0)  -->
<svg version="1.1" id="Calque_1" xmlns="http://www.w3.org/2000/svg" xmlns:xlink="http://www.w3.org/1999/xlink" x="0px" y="0px" viewBox="-35 -25 200 200" enable-background="new 0 0 200 200" xml:space="preserve" class="mozwebext">
<g>
	<path fill="#88C648" d="M44.3,69c-0.7-0.7-1.6-0.4-2,0.3l-13.2,70.7c-0.3,1.1,1.3,1.6,2,0.7l31.2-44.1c0.7-0.7,0.7-1.6,0-2.6   L44.3,69z"/>
	<path fill="#88C648" d="M130.3,39.4H91.1c-0.7,0-1.1,0.7-1.1,1.3l3,15.8c0,0.7,0.7,1.1,1.3,0.7l36.2-15.8   C131.6,40.7,131.2,39.4,130.3,39.4z"/>
	<path fill="#88C648" d="M84.9,40c0-0.4-0.7-0.7-1.1-0.7H2.2c-0.9,0-1.3,1.7-0.4,2L43,59.1c0.9,0.3,2,1.3,2.6,2l56.3,79.2   c0.7,1.1,2,0.3,2-0.7L84.9,40z"/>
	<path fill="#88C648" d="M48.3,27.9l36.6-11.6c2.6-0.7,2.4-1.6-0.3-2l-7.5-0.7L68.4,0.6c-0.4-0.7-1.1-0.7-1.7-0.4L51.3,10.4   c-0.3,0.3-0.7,0.7-0.7,1.3l2,10.5l-5.3,3.9C45.4,27.9,45.7,28.6,48.3,27.9z"/>
</g>
</svg>
